<svg width="298" height="350" viewBox="0 0 298 350" fill="none" xmlns="http://www.w3.org/2000/svg">
<path d="M190.706 125.701C190.706 125.701 219.647 130.355 241.39 137.356C263.132 144.351 282.1 156.235 282.1 156.235C282.1 156.235 280.357 195.515 267.054 220.525C251.447 210.046 212.901 189.035 194.368 182.497C199.137 192.163 206.591 211.229 210.567 228.742C201.061 228.589 188.33 230.979 188.33 230.979L170.62 170.777L190.706 125.701Z" fill="#F8CC46"/>
<path d="M236.338 173.633C251.229 190.639 262.506 209.403 267.852 218.966C267.589 219.494 267.325 220.015 267.048 220.531C251.441 210.053 212.895 189.041 194.363 182.503C199.131 192.169 206.585 211.235 210.561 228.749C201.055 228.595 188.324 230.985 188.324 230.985L170.614 170.783L188.429 130.806C194.42 135.136 218.067 152.764 236.338 173.633Z" fill="#ECA539"/>
<path d="M190.706 125.701C190.706 125.701 219.647 130.355 241.39 137.356C263.132 144.351 282.1 156.235 282.1 156.235C282.1 156.235 280.357 195.515 267.054 220.525C251.447 210.046 212.901 189.035 194.368 182.497C199.137 192.163 206.591 211.229 210.567 228.742C201.061 228.589 188.33 230.979 188.33 230.979L170.62 170.777L190.706 125.701Z" stroke="#333333" stroke-width="2" stroke-miterlimit="10" stroke-linecap="round" stroke-linejoin="round"/>
<path d="M183.062 181.813C183.062 181.813 182.61 195.809 184.564 207.185C186.518 218.561 189.532 229.906 197.186 242.034C204.84 254.155 209.31 259.837 209.547 267.423C213.053 264.534 217.326 262.227 218.893 263.655C220.461 265.082 219.776 266.895 219.776 266.895C219.776 266.895 221.545 265.607 222.438 266.627C223.332 267.647 223.701 269.747 222.983 272.038C224.228 271.837 224.789 273.518 223.519 277.374C222.249 281.23 217.81 292.14 206.391 303.668C194.972 315.197 184.324 323.326 177.799 319.784C175.531 318.503 175.7 315.398 175.7 315.398C175.7 315.398 174.419 316.002 170.148 315.246C165.877 314.49 145.489 308.373 132.153 307.895C118.818 307.416 100.635 307.501 81.4272 313.872C81.5806 316.152 80.5437 321.57 71.7799 317.854C63.0162 314.138 51.6779 306.718 41.7573 293.766C31.8367 280.813 29.7158 272.308 31.129 271.449C31.8309 270.941 33.0322 271.499 33.0322 271.499C33.0322 271.499 30.7669 265.899 32.2979 264.953C33.8288 264.006 35.9085 266.251 35.9085 266.251C35.9085 266.251 35.6 264.379 36.7385 263.872C37.877 263.364 39.6521 263.775 42.801 265.957C42.7098 262.282 42.7888 257.594 47.7558 251.115C52.7228 244.636 56.5903 242.763 60.7261 241.922C62.4359 235.834 63.4287 232.558 63.9546 228.916C63.9546 228.916 54.6837 224.059 43.141 209.133C31.5982 194.206 24.4308 181.135 21.6071 173.569C18.7896 166.002 17.07 161.236 16.2481 160.424C15.4256 159.607 14.3845 158.126 14.5281 157.478C14.6717 156.829 16.5639 157.273 16.7074 156.624C16.851 155.976 15.4364 153.423 15.8824 152.636C16.3285 151.849 18.6353 152.201 18.8155 151.916C18.9957 151.632 18.1731 149.178 18.6356 148.555C19.0974 147.925 21.5659 148.311 22.0385 147.788C22.511 147.265 21.1921 144.594 21.912 143.888C22.6318 143.181 28.0549 144.697 28.5603 144.437C29.0594 144.177 29.33 141.081 30.1581 140.947C30.9862 140.813 47.6123 148.278 56.6293 153.002C65.6464 157.726 183.062 181.813 183.062 181.813Z" fill="#F8CC46" stroke="#333333" stroke-width="1.2" stroke-miterlimit="10" stroke-linecap="round" stroke-linejoin="round"/>
<path d="M44.2319 280.245C49.6835 276.634 62.812 287.888 67.8956 291.815C72.9792 295.743 72.1589 293.815 89.0961 288.205C106.039 282.589 129.347 287.854 144.718 293.917C160.09 299.98 178.957 304.056 178.957 304.056C178.957 304.056 182.996 298.101 188.208 292.238C193.421 286.374 205.159 277.267 211.431 282.001C215.929 285.391 212.707 294.371 210.516 299.195C209.253 300.666 207.879 302.168 206.385 303.675C194.967 315.21 184.319 323.332 177.793 319.791C175.526 318.51 175.694 315.405 175.694 315.405C175.694 315.405 174.414 316.009 170.143 315.253C165.872 314.497 145.483 308.38 132.148 307.901C118.812 307.423 100.63 307.508 81.4217 313.879C81.5751 316.159 80.5382 321.577 71.7744 317.861C64.2 314.647 54.6952 308.659 45.8438 298.725C40.9232 289.309 39.3437 283.482 44.2319 280.245Z" fill="#ECA539"/>
<path d="M65.1514 220.557C65.1514 220.557 53.2047 218.474 39.6807 204.546C45.8399 212.499 53.6763 223.036 63.3229 228.547C64.1628 225.196 65.1514 220.557 65.1514 220.557Z" fill="#ECA539"/>
<path d="M183.062 181.813C183.062 181.813 182.61 195.809 184.564 207.185C186.518 218.561 189.532 229.906 197.186 242.034C204.84 254.155 209.31 259.837 209.547 267.423C213.053 264.534 217.326 262.227 218.893 263.655C220.461 265.082 219.776 266.895 219.776 266.895C219.776 266.895 221.545 265.607 222.438 266.627C223.332 267.647 223.701 269.747 222.983 272.038C224.228 271.837 224.789 273.518 223.519 277.374C222.249 281.23 217.81 292.14 206.391 303.668C194.972 315.197 184.324 323.326 177.799 319.784C175.531 318.503 175.7 315.398 175.7 315.398C175.7 315.398 174.419 316.002 170.148 315.246C165.877 314.49 145.489 308.373 132.153 307.895C118.818 307.416 100.635 307.501 81.4272 313.872C81.5806 316.152 80.5437 321.57 71.7799 317.854C63.0162 314.138 51.6779 306.718 41.7573 293.766C31.8367 280.813 29.7158 272.308 31.129 271.449C31.8308 270.941 33.0322 271.499 33.0322 271.499C33.0322 271.499 30.7669 265.899 32.2979 264.953C33.8288 264.006 35.9085 266.251 35.9085 266.251C35.9085 266.251 35.6 264.379 36.7385 263.872C37.877 263.364 39.6521 263.775 42.801 265.957C42.7098 262.282 42.7888 257.594 47.7558 251.115C52.7229 244.636 56.5903 242.763 60.7261 241.922C62.4359 235.834 63.4287 232.558 63.9546 228.916C63.9546 228.916 54.6837 224.059 43.141 209.133C31.5982 194.206 24.4308 181.135 21.6071 173.569C18.7896 166.002 17.07 161.236 16.2481 160.424C15.4256 159.607 14.3845 158.126 14.5281 157.478C14.6717 156.829 16.5639 157.273 16.7074 156.624C16.851 155.976 15.4364 153.423 15.8824 152.636C16.3285 151.849 18.6353 152.201 18.8155 151.916C18.9957 151.632 18.1731 149.178 18.6356 148.555C19.0974 147.925 21.5659 148.311 22.0385 147.788C22.511 147.265 21.1921 144.594 21.912 143.888C22.6318 143.181 28.0549 144.697 28.5603 144.437C29.0593 144.177 29.33 141.081 30.1581 140.947C30.9862 140.813 47.6123 148.278 56.6293 153.002C65.6464 157.726 183.062 181.813 183.062 181.813Z" stroke="#333333" stroke-width="2" stroke-miterlimit="10" stroke-linecap="round" stroke-linejoin="round"/>
<path d="M185.497 180.852C195.621 169.846 194.034 163.506 192.069 153.4C190.103 143.293 192.21 134.363 192.438 125.621C192.666 116.879 191.891 108.663 189.677 103.388C235.965 119.023 269.801 103.147 281.761 96.2376C222.302 58.674 170.783 83.253 170.783 83.253C170.783 83.253 149.109 64.349 110.666 70.5935C127.021 57.0591 146.467 40.728 156.044 3.83654C134.709 7.67551 85.9062 32.0256 74.6301 87.6926C72.0628 91.5461 68.0589 93.6356 66.2743 107.347C64.4897 121.058 61.5394 134.189 57.8965 142.006C54.2536 149.823 51.2842 161.694 71.2017 183.578C85.1223 198.239 90.7613 201.902 90.7613 201.902" fill="#F8CC46"/>
<path d="M129.674 133.835C129.667 134.704 128.928 135.85 127.058 135.759C125.189 135.668 124.475 134.041 124.911 133.28C125.347 132.52 129.689 132.407 129.674 133.835Z" fill="#333333"/>
<path d="M161.53 125.007C155.55 127.765 154.849 137.968 158.768 142.33C162.686 146.691 170.494 147.25 174.531 143.357C178.569 139.463 179.11 130.69 174.095 126.438C169.08 122.187 163.949 123.889 161.53 125.007Z" fill="#333333"/>
<path d="M161.954 125.636C160.811 126.22 158.597 129.62 160.348 132.063C162.1 134.505 165.372 134.449 167.036 133.254C168.7 132.06 169.307 129.101 167.792 126.996C166.277 124.891 163.495 124.847 161.954 125.636Z" fill="white"/>
<path d="M94.1564 116.697C91.2259 114.297 83.976 113.492 79.3269 118.664C74.6777 123.837 75.81 131.383 80.4671 134.719C85.1242 138.055 93.9224 135.319 95.9562 130.942C97.9956 126.558 97.7765 119.662 94.1564 116.697Z" fill="#333333"/>
<path d="M93.6876 118.076C92.1732 116.985 89.1945 117.063 87.931 118.655C86.6675 120.246 86.7511 123.846 88.5864 125.171C90.4217 126.495 93.6862 125.926 94.8264 124.302C95.9665 122.678 95.8632 119.639 93.6876 118.076Z" fill="white"/>
<path d="M156.044 3.83594C152.865 16.0831 148.592 26.0562 143.713 34.4224C141.617 32.3314 136.41 31.8342 121.855 34.0147C109.02 35.9334 95.8531 45.5581 89.957 50.3489C109.49 20.7247 140.27 6.67161 156.044 3.83594Z" fill="#333333"/>
<path d="M281.761 96.2431C271.93 101.924 247.314 113.658 213.156 108.971C218.939 107.653 230.064 104.455 238.696 97.9874C248.88 90.3494 251.505 84.7462 250.319 81.3842C260.364 84.6225 270.93 89.3998 281.761 96.2431Z" fill="#333333"/>
<path d="M82.9496 81.1438C82.9496 81.1438 82.7893 81.1853 82.5162 81.3015C82.235 81.3995 81.8549 81.5836 81.4028 81.8066C80.9589 82.0479 80.4353 82.3161 79.9144 82.6729C79.3853 83.0114 78.8425 83.4021 78.3085 83.8173C78.0443 84.0214 77.7738 84.2261 77.5153 84.4234C77.258 84.6331 77.0138 84.8479 76.7816 85.0552C76.3108 85.4703 75.8688 85.8571 75.5196 86.222C74.8135 86.9398 74.3566 87.4296 74.3566 87.4296C74.2139 87.5835 74.2253 87.8233 74.3727 87.967C74.5125 88.0988 74.7342 88.1019 74.8738 87.98L74.8914 87.9656C74.8914 87.9656 75.3922 87.5347 76.1165 86.8722C76.3024 86.7076 76.4852 86.5117 76.7011 86.3314C76.9171 86.1512 77.1444 85.9571 77.3772 85.7562C77.6107 85.5615 77.8549 85.3467 78.0928 85.1325C78.3444 84.9297 78.5955 84.7205 78.8534 84.517C79.3549 84.0925 79.8858 83.7093 80.3729 83.3306C80.8531 82.9463 81.3264 82.6196 81.7058 82.3025C82.1071 82.0148 82.4358 81.7598 82.6649 81.5846C82.9003 81.4087 83.0293 81.307 83.0293 81.307C83.0706 81.2775 83.0768 81.2134 83.0474 81.172C83.0323 81.1482 82.9928 81.1331 82.9496 81.1438Z" fill="#333333" stroke="#333333"/>
<path d="M143.932 156.814C143.932 156.814 141.582 166.486 136.065 176.869C130.548 187.253 125.334 192.85 121.356 192.616C117.378 192.382 111.02 182.635 109.189 168.393C107.364 154.151 107.586 152.461 107.586 152.461C107.586 152.461 113.162 152.851 117.759 150.562C122.357 148.274 125.754 145.117 132.137 149.573C138.507 154.03 140.291 156.787 143.932 156.814Z" fill="#6C4C59" stroke="#333333" stroke-width="1.2" stroke-miterlimit="10" stroke-linecap="round" stroke-linejoin="round"/>
<path d="M109.128 167.917C111.385 164.811 116.243 160.023 124.523 160.433C133.883 160.893 137.507 168.176 138.684 171.507C137.902 173.24 137.033 175.04 136.065 176.868C130.542 187.253 125.334 192.849 121.356 192.615C117.378 192.381 111.02 182.634 109.189 168.392C109.166 168.23 109.151 168.079 109.128 167.917Z" fill="#F26981" stroke="#333333" stroke-width="1.2" stroke-miterlimit="10" stroke-linecap="round" stroke-linejoin="round"/>
<path d="M149.046 155.139C149.046 155.139 148.969 155.185 148.837 155.255C148.711 155.331 148.517 155.414 148.287 155.52C148.058 155.632 147.783 155.729 147.491 155.841C147.19 155.928 146.887 156.067 146.557 156.119C146.396 156.154 146.235 156.189 146.075 156.231C145.921 156.278 145.757 156.282 145.608 156.303C145.458 156.325 145.307 156.333 145.17 156.36C145.034 156.392 144.902 156.393 144.775 156.393C144.288 156.398 143.957 156.437 143.957 156.437L143.894 156.444C143.688 156.465 143.542 156.65 143.563 156.858C143.581 157.04 143.728 157.177 143.9 157.191C143.9 157.191 144.264 157.225 144.815 157.226C145.089 157.249 145.405 157.18 145.747 157.12C145.914 157.084 146.09 157.073 146.261 157.011C146.433 156.962 146.605 156.907 146.776 156.845C147.126 156.746 147.436 156.55 147.745 156.418C147.895 156.339 148.031 156.243 148.162 156.16C148.293 156.077 148.418 156.001 148.524 155.921C148.742 155.76 148.911 155.616 149.026 155.503C149.142 155.396 149.199 155.333 149.199 155.333L149.204 155.326C149.249 155.271 149.242 155.196 149.187 155.15C149.152 155.116 149.088 155.116 149.046 155.139Z" fill="#333333"/>
<path d="M102.275 149.8C102.275 149.8 102.315 149.878 102.425 150.026C102.528 150.174 102.68 150.362 102.873 150.583C102.966 150.694 103.091 150.796 103.21 150.917C103.335 151.025 103.457 151.165 103.607 151.27C103.906 151.481 104.21 151.736 104.563 151.91C104.9 152.117 105.259 152.284 105.606 152.401C105.777 152.466 105.942 152.532 106.105 152.585C106.263 152.646 106.423 152.661 106.566 152.698C107.147 152.81 107.531 152.854 107.531 152.854C107.735 152.878 107.923 152.726 107.946 152.521C107.966 152.341 107.855 152.181 107.697 152.121L107.645 152.101C107.645 152.101 107.304 151.983 106.784 151.845C106.653 151.807 106.512 151.79 106.373 151.721C106.234 151.659 106.083 151.611 105.925 151.551C105.767 151.491 105.604 151.444 105.445 151.371C105.292 151.291 105.132 151.212 104.966 151.14C104.631 151.009 104.338 150.804 104.049 150.636C103.895 150.557 103.771 150.455 103.643 150.373C103.52 150.284 103.386 150.208 103.289 150.123C103.076 149.954 102.891 149.821 102.78 149.718C102.662 149.622 102.592 149.553 102.592 149.553C102.514 149.472 102.388 149.472 102.307 149.55C102.244 149.613 102.234 149.703 102.267 149.782L102.275 149.8Z" fill="#333333"/>
<path d="M181.173 152.014C185.721 151.189 190.513 154.924 192.758 156.987C194.249 165.144 194.372 171.206 185.497 180.856C183.98 182.505 182.553 183.98 181.182 185.323C167.387 184.244 166.506 172.018 168.038 164.54C169.628 156.765 174.958 153.14 181.173 152.014Z" fill="#F22539" stroke="#333333" stroke-width="1.2" stroke-miterlimit="10" stroke-linecap="round" stroke-linejoin="round"/>
<path d="M56.3127 146.016C59.1613 143.072 65.0474 139.817 71.6146 143.963C80.0601 149.296 81.2294 162.495 77.0972 169.41C73.9997 174.598 67.3184 175.105 64.173 175.034C54.3271 161.504 54.2837 152.517 56.3127 146.016Z" fill="#F22539" stroke="#333333" stroke-width="1.2" stroke-miterlimit="10" stroke-linecap="round" stroke-linejoin="round"/>
<path d="M131.156 209.145C131.124 210.842 124.381 215.325 117.299 215.187C110.218 215.056 104.915 210.517 104.974 209.027C105.033 207.537 111.896 208.648 117.208 209.064C122.522 209.488 131.192 207.24 131.156 209.145Z" fill="#ECA539"/>
<path d="M64.3143 228.968C64.3143 228.968 64.6218 227.244 65.0833 224.661C65.2752 223.361 65.4563 221.827 65.6718 220.195C65.8678 218.558 66.0212 216.812 66.1814 215.071C66.3029 213.321 66.45 211.576 66.5445 209.936C66.6391 208.297 66.7061 206.762 66.7195 205.448C66.7329 204.134 66.7364 203.037 66.7101 202.272C66.6964 201.507 66.6647 201.066 66.6647 201.066C66.6634 200.99 66.5944 200.933 66.5255 200.94C66.4566 200.947 66.4047 200.997 66.3985 201.061C66.3985 201.061 66.3537 201.497 66.266 202.26C66.1782 203.023 66.0977 204.11 65.9696 205.416C65.8667 206.72 65.7351 208.242 65.6273 209.876C65.5196 211.511 65.3594 213.251 65.2242 214.99C65.1346 215.861 65.0508 216.726 64.9656 217.578C64.8805 218.43 64.8204 219.279 64.7245 220.088C64.5335 221.711 64.3561 223.219 64.2018 224.515C63.8305 227.115 63.5806 228.845 63.5806 228.845C63.5507 229.051 63.6906 229.247 63.8961 229.277C64.089 229.308 64.2838 229.168 64.3143 228.968Z" fill="#333333" stroke="#333333"/>
<path d="M76.6837 242.866C76.6837 242.866 76.4618 242.736 76.0507 242.549C75.6402 242.369 75.0568 242.104 74.3237 241.861C73.5962 241.61 72.729 241.355 71.7848 241.152C71.3136 241.06 70.8217 240.951 70.3218 240.887C69.8199 240.804 69.3074 240.742 68.7969 240.698C68.285 240.642 67.7663 240.643 67.2583 240.625C66.7489 240.593 66.2472 240.637 65.7667 240.641C65.2793 240.64 64.8189 240.718 64.3736 240.756C63.9282 240.795 63.5179 240.868 63.1327 240.938C62.7538 241.008 62.3986 241.063 62.0968 241.144C61.7886 241.225 61.5237 241.296 61.3082 241.356C60.8711 241.476 60.6249 241.545 60.6249 241.545C60.422 241.604 60.31 241.812 60.3615 242.009C60.4124 242.201 60.608 242.321 60.7996 242.276L60.8309 242.273C60.8309 242.273 61.0727 242.223 61.4999 242.129C61.7103 242.083 61.9703 242.025 62.2671 241.957C62.5647 241.896 62.9085 241.855 63.2756 241.792C63.6426 241.73 64.041 241.665 64.4745 241.634C64.9011 241.597 65.3502 241.533 65.8175 241.524C66.2842 241.509 66.7665 241.46 67.2614 241.474C67.7557 241.481 68.255 241.475 68.7524 241.514C69.2542 241.533 69.751 241.566 70.2378 241.625C70.729 241.664 71.2051 241.743 71.6738 241.81C72.6004 241.964 73.4707 242.124 74.1987 242.317C75.6712 242.676 76.6124 243.038 76.6124 243.038C76.665 243.058 76.7195 243.034 76.7395 242.981C76.742 242.943 76.7238 242.887 76.6837 242.866Z" fill="#333333" stroke="#333333"/>
<path d="M124.523 160.435C133.883 160.895 137.507 168.177 138.684 171.509C138.523 171.867 138.352 172.233 138.18 172.605C136.521 170.388 131.965 165.418 124.469 165.437C116.226 165.454 112.024 166.574 109.411 169.976C109.327 169.458 109.255 168.933 109.183 168.401C109.16 168.238 109.145 168.081 109.122 167.925C111.385 164.819 116.243 160.025 124.523 160.435Z" fill="#B94966"/>
<path d="M109.128 167.917C111.385 164.811 116.243 160.023 124.523 160.433C133.883 160.893 137.507 168.176 138.684 171.507C137.902 173.24 137.033 175.04 136.065 176.868C130.542 187.253 125.334 192.849 121.356 192.615C117.378 192.381 111.02 182.634 109.189 168.392C109.166 168.23 109.151 168.079 109.128 167.917Z" stroke="#333333" stroke-width="1.2" stroke-miterlimit="10" stroke-linecap="round" stroke-linejoin="round"/>
<path d="M213.156 108.972C213.156 108.972 192.053 102.357 186.423 97.7743C188.472 100.973 189.522 103.043 189.522 103.043C189.522 103.043 204.765 108.402 213.156 108.972Z" fill="#ECA539"/>
<path d="M190.021 103.227C190.021 103.227 189.746 102.569 189.307 101.599C189.207 101.356 189.048 101.099 188.894 100.829C188.74 100.559 188.579 100.271 188.409 99.9709C188.07 99.3709 187.64 98.8054 187.244 98.1985C187.049 97.8947 186.824 97.6129 186.607 97.3368C186.389 97.0606 186.172 96.7845 185.962 96.5266C185.524 96.0126 185.116 95.54 184.736 95.1597C184.368 94.7656 184.04 94.4625 183.81 94.251C183.579 94.0333 183.435 93.9272 183.435 93.9272C183.388 93.894 183.325 93.9003 183.285 93.9424C183.257 93.9769 183.256 94.034 183.285 94.0692C183.285 94.0692 183.704 94.6422 184.328 95.5051C184.649 95.9294 184.98 96.4541 185.381 96.9781C185.567 97.2512 185.76 97.5361 185.953 97.821C186.141 98.1129 186.365 98.3884 186.546 98.6872C186.916 99.284 187.329 99.864 187.633 100.436C187.801 100.717 187.961 100.986 188.113 101.244C188.266 101.501 188.416 101.733 188.529 101.982C189.011 102.935 189.352 103.56 189.352 103.56C189.453 103.747 189.681 103.812 189.867 103.711C190.022 103.613 190.09 103.404 190.021 103.227Z" fill="#333333" stroke="#333333"/>
<path d="M133.979 48.3633C133.979 48.3633 115.047 65.1562 100.381 73.3338C107.586 71.1823 110.66 70.6005 110.66 70.6005C110.66 70.6005 130.024 54.5885 133.979 48.3633Z" fill="#ECA539"/>
<path d="M156.077 202.338C158.244 201.233 160.41 200.127 162.553 198.967C164.703 197.825 166.821 196.61 168.908 195.347C170.995 194.078 173.012 192.683 174.944 191.189C176.868 189.683 178.704 188.059 180.463 186.366C182.209 184.656 183.906 182.907 185.554 181.111C187.202 179.316 188.777 177.426 190.12 175.37C191.457 173.314 192.561 171.079 193.168 168.684C193.801 166.294 193.865 163.782 193.632 161.345C193.405 158.895 192.917 156.497 192.455 154.108C191.981 151.721 191.67 149.324 191.566 146.899C191.331 142.047 191.83 137.196 192.278 132.345C192.503 129.919 192.687 127.478 192.739 125.032C192.791 122.591 192.778 120.139 192.659 117.697C192.534 115.255 192.307 112.811 191.918 110.39C191.51 107.971 190.951 105.56 190.011 103.258L189.543 103.762L192.386 104.668L193.805 105.121L195.238 105.529L198.11 106.343L201.004 107.06C201.966 107.312 202.942 107.519 203.912 107.725C204.888 107.925 205.854 108.158 206.833 108.332L209.771 108.855C210.751 109.035 211.737 109.151 212.72 109.3L214.197 109.513L215.681 109.68C216.673 109.784 217.661 109.919 218.649 109.991L221.627 110.224L224.609 110.368C225.602 110.426 226.6 110.415 227.596 110.435L229.091 110.456L230.581 110.427C232.573 110.41 234.562 110.305 236.543 110.182L239.517 109.94L242.484 109.616L245.442 109.205L248.385 108.712L251.314 108.145L254.229 107.496L257.124 106.768C258.083 106.494 259.045 106.239 259.997 105.953C267.648 103.642 275.044 100.552 281.945 96.5669C282.125 96.4664 282.19 96.2316 282.083 96.0521C282.052 95.9981 282.003 95.9523 281.956 95.9191C279.897 94.636 277.822 93.38 275.708 92.1848C274.649 91.5938 273.595 90.9896 272.52 90.4319C271.45 89.8548 270.375 89.2971 269.29 88.7595C267.129 87.6641 264.92 86.6498 262.707 85.6612C260.479 84.7059 258.24 83.7707 255.96 82.9347C246.874 79.5304 237.403 77.1539 227.777 75.9407C218.157 74.7144 208.387 74.6507 198.748 75.7597C193.932 76.3138 189.146 77.1693 184.434 78.3217C182.082 78.907 179.744 79.5608 177.434 80.313C175.125 81.0716 172.846 81.8841 170.608 82.9019L171.018 82.9558C169.975 82.0904 168.899 81.33 167.794 80.5915C166.689 79.8592 165.55 79.1747 164.403 78.5229C163.255 77.8648 162.08 77.26 160.889 76.676C159.704 76.0913 158.492 75.5538 157.276 75.0357C156.054 74.5245 154.822 74.0459 153.582 73.6C152.335 73.161 151.084 72.7352 149.813 72.3621C149.185 72.1589 148.547 71.9884 147.904 71.8185C147.267 71.648 146.628 71.4649 145.987 71.3201L144.056 70.8676L142.111 70.4671C141.465 70.3292 140.81 70.2366 140.159 70.1181C139.509 70.006 138.858 69.8939 138.205 69.8138L136.242 69.5483L134.273 69.3468C132.962 69.2061 131.639 69.1425 130.321 69.0532C129.001 69.021 127.682 68.9317 126.363 68.9567L124.382 68.9593L122.402 69.0253C121.083 69.0565 119.766 69.17 118.446 69.2584C117.125 69.3404 115.822 69.5286 114.506 69.6546C113.193 69.8183 111.892 70.0253 110.588 70.2072L110.889 70.8744C116.176 66.5064 121.444 62.0768 126.328 57.223C127.554 56.0153 128.745 54.7731 129.922 53.5197C131.086 52.2549 132.235 50.9726 133.35 49.662C135.579 47.0346 137.683 44.3055 139.645 41.4767C141.606 38.6479 143.432 35.7187 145.103 32.7098L146.336 30.4361L147.509 28.1368C148.258 26.5841 149 25.0319 149.689 23.4535C150.047 22.6692 150.365 21.87 150.697 21.0757C151.034 20.2808 151.353 19.4816 151.658 18.6773C152.294 17.0787 152.858 15.4494 153.435 13.8252C153.966 12.1865 154.524 10.5578 154.996 8.89972C155.508 7.25665 155.934 5.5841 156.394 3.92724C156.45 3.72508 156.334 3.52109 156.132 3.46529C156.074 3.45213 156.017 3.44525 155.967 3.45656L155.961 3.45719C150.867 4.40068 145.951 6.03654 141.172 7.9693C136.401 9.92025 131.781 12.2302 127.328 14.8277C118.422 20.0163 110.184 26.3679 102.944 33.7161C99.3272 37.3899 95.95 41.3059 92.888 45.4629C89.8255 49.6136 87.0443 53.9833 84.6305 58.5443C79.7632 67.6513 76.2923 77.4929 74.2481 87.6159L74.3043 87.4834C73.561 88.5854 72.6572 89.6021 71.8111 90.6891C70.9581 91.7705 70.1759 92.9271 69.5273 94.1527C68.2043 96.6003 67.4039 99.2743 66.7877 101.955C66.1784 104.642 65.846 107.376 65.4647 110.065C65.0778 112.761 64.6333 115.45 64.1499 118.13C63.1769 123.491 61.9914 128.816 60.4138 134.016C59.6183 136.613 58.712 139.178 57.5989 141.636C56.4375 144.118 55.4824 146.763 55.0823 149.517C54.6692 152.266 54.8073 155.087 55.352 157.797C55.9035 160.512 56.8496 163.125 58.018 165.62C59.1802 168.115 60.589 170.485 62.1093 172.767C63.6359 175.048 65.2864 177.241 67.0296 179.348C67.9012 180.402 68.7853 181.455 69.6976 182.472C70.1603 182.984 70.5911 183.492 71.0795 184.008L72.5052 185.475L75.3509 188.416C76.3033 189.392 77.2851 190.346 78.2612 191.307C79.2311 192.268 80.2122 193.216 81.2228 194.141C82.2271 195.067 83.2025 196.022 84.2469 196.906C86.2893 198.717 88.3955 200.471 90.6701 202.011C90.7309 202.05 90.8117 202.035 90.8499 201.974C90.8881 201.913 90.8742 201.839 90.8191 201.793L90.8122 201.788C90.2725 201.392 89.7359 200.964 89.2175 200.528C88.6928 200.092 88.1744 199.656 87.6722 199.193C86.6404 198.308 85.643 197.387 84.6444 196.454C83.6413 195.54 82.6658 194.586 81.679 193.645C80.6867 192.711 79.7237 191.756 78.7657 190.787C77.8084 189.824 76.8272 188.876 75.8749 187.901L73.0291 184.959L71.6091 183.485C71.1557 183.004 70.7043 182.479 70.2554 181.979C69.35 180.967 68.4734 179.926 67.6143 178.871C65.8849 176.775 64.2551 174.599 62.7499 172.341C61.2509 170.082 59.8639 167.742 58.725 165.289C57.5804 162.842 56.6588 160.284 56.1274 157.643C55.6029 155.007 55.4685 152.287 55.8724 149.634C56.2631 146.976 57.1776 144.43 58.3352 141.974C59.4752 139.469 60.3909 136.872 61.2033 134.254C62.8016 129.007 64.0039 123.661 64.9876 118.28C65.4822 115.586 65.9136 112.893 66.2986 110.178C66.6718 107.471 66.9948 104.769 67.5834 102.129C68.179 99.4943 68.9537 96.88 70.2223 94.5204C70.8434 93.3355 71.5918 92.2203 72.4216 91.1604C73.2445 90.0947 74.1534 89.0648 74.9349 87.9019C74.9624 87.8611 74.9774 87.8216 74.9918 87.7757L74.9911 87.7695C77.0236 77.7174 80.4701 67.948 85.2992 58.9019C87.6974 54.3742 90.4629 50.0378 93.5029 45.9147C96.5423 41.7853 99.8977 37.9032 103.491 34.2508C110.685 26.9516 118.871 20.6433 127.717 15.4861C132.14 12.9106 136.731 10.6163 141.471 8.67481C146.206 6.75274 151.093 5.13259 156.105 4.20357L155.672 3.73352C155.218 5.38347 154.79 7.04346 154.284 8.67963C153.811 10.3252 153.259 11.9469 152.733 13.5787C152.161 15.1898 151.603 16.8122 150.965 18.3982C150.667 19.2018 150.348 19.9948 150.009 20.7834C149.677 21.5714 149.365 22.37 149.007 23.148C148.324 24.7195 147.587 26.2648 146.843 27.8043L145.675 30.0905L144.452 32.344C142.792 35.3328 140.983 38.2413 139.032 41.05C137.081 43.8588 134.994 46.5734 132.782 49.1801C131.673 50.4838 130.536 51.7585 129.378 53.0164C128.207 54.2629 127.021 55.4982 125.807 56.6983C120.952 61.5239 115.707 65.9384 110.414 70.3008C110.25 70.4315 110.23 70.6744 110.366 70.8319C110.452 70.9374 110.583 70.9813 110.709 70.9687L110.715 70.968C112.013 70.7868 113.308 70.5804 114.608 70.418C115.911 70.2932 117.209 70.1057 118.517 70.0248C119.823 69.9315 121.128 69.8192 122.435 69.7893L124.395 69.7189L126.357 69.7182C127.664 69.6945 128.977 69.7844 130.283 69.8116C131.589 69.9021 132.898 69.9607 134.197 70.1027L136.154 70.3054L138.098 70.5728C138.745 70.6535 139.395 70.7594 140.039 70.8784C140.684 70.9975 141.332 71.0845 141.972 71.223L143.898 71.6191L145.809 72.0673C146.45 72.212 147.076 72.3901 147.707 72.5613C148.338 72.7324 148.969 72.9036 149.596 73.1005C150.854 73.4685 152.092 73.8893 153.325 74.3233C154.559 74.7635 155.778 75.2434 156.986 75.7433C158.189 76.2563 159.382 76.7895 160.56 77.3685C161.732 77.9482 162.899 78.5473 164.034 79.1941C165.168 79.841 166.293 80.5142 167.378 81.2357C168.463 81.9573 169.539 82.7177 170.52 83.5385C170.638 83.6408 170.797 83.6564 170.93 83.5924C173.097 82.6135 175.38 81.7878 177.666 81.0443C179.957 80.3002 182.277 79.6484 184.617 79.0706C189.297 77.9213 194.046 77.0696 198.838 76.5243C208.414 75.4216 218.12 75.4853 227.683 76.7048C237.246 77.918 246.664 80.2744 255.698 83.6586C257.964 84.4896 260.19 85.4198 262.405 86.3701C264.611 87.353 266.8 88.3567 268.954 89.4464C270.032 89.9783 271.107 90.536 272.164 91.1082C273.233 91.6665 274.28 92.265 275.339 92.8497C277.438 94.0336 279.506 95.284 281.552 96.5621L281.563 95.9142C274.715 99.8622 267.368 102.935 259.8 105.192C258.854 105.478 257.899 105.732 256.945 105.999L254.07 106.726L251.174 107.373L248.263 107.938L245.338 108.422L242.399 108.832L239.451 109.154L236.495 109.394C234.52 109.517 232.551 109.626 230.572 109.641L229.088 109.67L227.605 109.648C226.616 109.627 225.63 109.637 224.643 109.578L221.681 109.438L218.722 109.21C217.734 109.138 216.758 109.001 215.774 108.904L214.303 108.741L212.832 108.528C211.855 108.379 210.869 108.262 209.902 108.087L206.984 107.569C206.011 107.394 205.046 107.168 204.076 106.967C203.107 106.766 202.143 106.559 201.182 106.307L198.301 105.595L195.448 104.785L194.021 104.377L192.609 103.923L189.785 103.021C189.582 102.959 189.372 103.069 189.309 103.265C189.28 103.351 189.289 103.439 189.316 103.518L189.316 103.525C190.241 105.733 190.808 108.099 191.231 110.478C191.629 112.867 191.878 115.283 192.021 117.704C192.157 120.131 192.192 122.556 192.146 124.99C192.105 127.416 191.925 129.837 191.708 132.269C191.271 137.113 190.782 142 191.034 146.902C191.148 149.351 191.476 151.797 191.957 154.184C192.425 156.572 192.912 158.964 193.147 161.369C193.377 163.774 193.319 166.215 192.711 168.546C192.124 170.882 191.054 173.076 189.739 175.104C188.418 177.133 186.879 179.006 185.231 180.795C183.561 182.561 181.884 184.321 180.093 185.96C178.303 187.598 176.455 189.166 174.513 190.617C172.585 192.079 170.575 193.429 168.515 194.708C166.462 195.999 164.348 197.194 162.251 198.42C160.139 199.628 158.027 200.842 155.93 202.068C155.858 202.107 155.835 202.198 155.88 202.263C155.926 202.347 156.011 202.37 156.077 202.338Z" fill="#333333" stroke="#333333"/>
<path d="M93.9487 76.2575C93.9487 76.2575 94.977 75.8497 96.5157 75.2321C96.8983 75.0731 97.3273 74.9348 97.765 74.7576C98.2097 74.5861 98.6731 74.4127 99.1541 74.2248C99.6432 74.0551 100.145 73.8842 100.658 73.6994C101.164 73.509 101.683 73.3237 102.212 73.169C102.739 73.0019 103.261 72.8416 103.776 72.6819C104.29 72.5097 104.809 72.3878 105.302 72.2495C105.801 72.1168 106.281 71.9861 106.737 71.8641C107.193 71.7359 107.625 71.629 108.029 71.5567C109.64 71.2171 110.716 70.9757 110.716 70.9757L110.747 70.9662C110.951 70.9203 111.076 70.7175 111.03 70.5129C110.985 70.3145 110.796 70.1941 110.602 70.2199C110.602 70.2199 109.5 70.3942 107.846 70.6873C107.429 70.7546 106.99 70.8558 106.529 70.9847C106.066 71.101 105.572 71.2267 105.067 71.36C104.561 71.487 104.03 71.6165 103.517 71.8075C102.997 71.9804 102.464 72.1545 101.938 72.3342C101.404 72.502 100.886 72.6999 100.368 72.8979C99.8561 73.0889 99.3519 73.2981 98.8716 73.4923C98.3932 73.7053 97.9329 73.9101 97.497 74.1061C97.0606 74.2958 96.651 74.5019 96.2847 74.6973C95.9121 74.8933 95.5752 75.0667 95.2753 75.23C94.9822 75.399 94.7255 75.5516 94.5164 75.6741C94.0918 75.9197 93.8671 76.0755 93.8677 76.0818C93.8201 76.1119 93.8076 76.1766 93.8377 76.2243C93.8534 76.2544 93.9054 76.2682 93.9487 76.2575Z" fill="#333333" stroke="#333333"/>
<path d="M165.968 262.801C165.968 262.801 184.213 258.239 180.1 245.653C175.938 253.092 173.285 256.852 165.968 262.801Z" fill="#ECA539"/>
<path d="M142.63 216.151C142.63 216.151 142.532 216.25 142.337 216.447C142.141 216.638 141.86 216.932 141.501 217.324C140.769 218.095 139.734 219.251 138.477 220.786C137.206 222.302 135.754 224.224 134.179 226.494C132.61 228.763 130.926 231.393 129.276 234.368C127.627 237.343 125.979 240.653 124.621 244.322C124.31 245.254 123.999 246.192 123.677 247.144C123.375 248.1 123.105 249.065 122.818 250.052C122.263 252.016 121.719 254.03 121.218 256.097C120.716 258.158 120.246 260.272 119.861 262.429C119.497 264.596 119.148 266.787 119.21 269.102C119.25 269.687 119.277 270.268 119.552 270.925C119.88 271.799 120.985 271.897 121.602 271.683C121.927 271.58 122.215 271.418 122.433 271.32C122.534 271.259 122.661 271.259 122.533 271.253C122.52 271.242 122.443 271.237 122.414 271.202C122.38 271.18 122.36 271.169 122.351 271.138C122.286 270.999 122.343 271.126 122.335 271.108L122.353 271.157C122.369 271.194 122.379 271.224 122.373 271.231L122.416 271.538L122.464 271.945L122.548 272.786C122.612 273.357 122.689 273.932 122.843 274.526C122.918 274.823 123.024 275.123 123.168 275.425C123.343 275.718 123.523 276.055 123.93 276.268L123.998 276.312C124.018 276.323 124.11 276.364 124.09 276.353L124.189 276.388C124.254 276.413 124.314 276.439 124.424 276.459C124.638 276.514 124.81 276.522 124.987 276.523C125.335 276.52 125.657 276.449 125.958 276.368C126.543 276.202 127.081 275.951 127.476 275.918C127.664 275.905 127.731 275.936 127.83 276.041C127.915 276.127 128.033 276.363 128.12 276.595C128.301 277.077 128.408 277.631 128.677 278.232C128.749 278.383 128.828 278.54 128.958 278.704C129.03 278.786 129.088 278.863 129.197 278.94L129.272 278.996C129.333 279.028 129.247 278.999 129.42 279.077L129.518 279.111C129.538 279.115 129.544 279.121 129.571 279.131L129.693 279.15C129.776 279.161 129.859 279.165 129.941 279.164C130.053 279.146 130.165 279.122 130.263 279.093C130.446 279.03 130.603 278.951 130.74 278.868C131.277 278.541 131.717 278.135 132.096 277.945C132.174 277.899 132.257 277.903 132.18 277.898C132.173 277.893 132.136 277.897 132.121 277.879L132.065 277.821L132.101 277.862C132.177 277.93 132.145 277.927 132.145 277.927C132.207 278.042 132.266 278.308 132.311 278.57C132.358 278.844 132.4 279.144 132.516 279.475C132.624 279.794 132.874 280.207 133.299 280.398C133.437 280.454 133.364 280.424 133.41 280.438L133.462 280.452C133.507 280.46 133.508 280.472 133.585 280.484C133.714 280.503 133.88 280.518 133.966 280.496C134.179 280.475 134.357 280.413 134.514 280.346C134.829 280.206 135.079 280.042 135.311 279.898C135.543 279.748 135.769 279.611 135.946 279.542C136.031 279.509 136.1 279.502 136.113 279.507L136.119 279.506C136.1 279.502 136.171 279.52 136.079 279.485L136.172 279.526C136.245 279.557 136.195 279.562 136.22 279.566C136.492 279.817 136.76 280.336 137.049 280.82C137.2 281.065 137.352 281.322 137.62 281.593C137.759 281.719 137.94 281.878 138.266 281.915C138.317 281.917 138.449 281.91 138.529 281.889C138.597 281.869 138.633 281.853 138.682 281.835C138.774 281.801 138.846 281.762 138.918 281.729C139.47 281.426 139.892 281.099 140.347 280.774C140.788 280.444 141.224 280.121 141.659 279.792C143.395 278.495 145.13 277.249 146.974 276.328C148.871 275.37 150.738 274.497 152.479 273.377C153.355 272.839 154.241 272.338 155.078 271.784C155.893 271.208 156.703 270.644 157.501 270.082C158.291 269.515 159.099 268.989 159.844 268.407C160.582 267.813 161.301 267.227 162.015 266.654C163.424 265.498 164.86 264.422 166.085 263.265C168.626 261.037 170.822 258.781 172.66 256.732C174.475 254.647 175.988 252.77 177.073 251.101C177.354 250.692 177.613 250.305 177.861 249.937C178.088 249.559 178.299 249.202 178.5 248.871C178.895 248.21 179.225 247.644 179.455 247.164C179.929 246.216 180.181 245.709 180.181 245.709C180.203 245.669 180.185 245.62 180.145 245.599C180.105 245.577 180.062 245.594 180.034 245.629L180.029 245.636C180.029 245.636 179.735 246.115 179.187 247.02C178.929 247.477 178.56 248.015 178.123 248.643C177.908 248.956 177.682 249.296 177.434 249.663C177.172 250.013 176.893 250.383 176.598 250.781C176.302 251.172 175.996 251.59 175.659 252.017C175.315 252.432 174.954 252.874 174.576 253.33C173.854 254.265 172.967 255.198 172.071 256.227C170.183 258.217 168.071 260.427 165.51 262.644C164.272 263.802 162.877 264.837 161.461 265.987C160.752 266.553 160.032 267.133 159.301 267.72C158.561 268.295 157.758 268.807 156.98 269.367C156.187 269.916 155.389 270.479 154.579 271.042C153.754 271.582 152.885 272.068 152.027 272.592C150.339 273.675 148.435 274.558 146.555 275.501C144.608 276.465 142.838 277.74 141.083 279.032C140.216 279.665 139.321 280.389 138.465 280.874C138.417 280.898 138.362 280.923 138.326 280.939L138.284 280.956C138.301 280.942 138.366 280.954 138.347 280.962C138.394 280.983 138.335 280.964 138.279 280.906C138.153 280.785 138.01 280.565 137.88 280.343C137.594 279.89 137.397 279.371 136.857 278.848C136.767 278.775 136.618 278.676 136.565 278.656L136.473 278.614C136.347 278.564 136.381 278.586 136.329 278.572L136.233 278.556C135.969 278.519 135.76 278.578 135.589 278.64C135.248 278.769 135.006 278.94 134.761 279.085C134.311 279.396 133.82 279.61 133.696 279.509C133.603 279.461 133.524 279.368 133.447 279.166C133.376 278.964 133.337 278.708 133.29 278.427C133.236 278.141 133.213 277.845 133.015 277.453C132.945 277.327 132.844 277.204 132.81 277.182L132.775 277.141C132.677 277.05 132.679 277.075 132.625 277.036C132.545 276.993 132.451 276.945 132.374 276.934C132.297 276.923 132.215 276.918 132.132 276.92C132.057 276.922 132.008 276.939 131.946 276.952C131.816 276.978 131.744 277.023 131.653 277.057C131.034 277.386 130.648 277.767 130.211 278.014C130.11 278.075 130.013 278.116 129.928 278.15C129.891 278.16 129.859 278.164 129.835 278.172C129.847 278.165 129.86 278.17 129.873 278.175C129.88 278.181 129.887 278.186 129.888 278.192C129.881 278.193 129.855 278.183 129.842 278.178C129.792 278.183 129.684 278.054 129.586 277.836C129.391 277.405 129.277 276.84 129.067 276.265C128.949 275.972 128.85 275.678 128.55 275.34C128.466 275.254 128.348 275.151 128.308 275.13L128.219 275.069C128.099 274.999 128.14 275.033 128.093 275.006L128.014 274.976C127.796 274.89 127.575 274.887 127.386 274.899C126.655 274.986 126.162 275.251 125.663 275.383C125.417 275.453 125.187 275.495 124.973 275.504C124.865 275.502 124.763 275.493 124.699 275.48C124.673 275.483 124.601 275.458 124.536 275.433L124.437 275.399C124.385 275.379 124.45 275.404 124.437 275.399L124.417 275.382C124.184 275.272 123.951 274.776 123.832 274.287C123.699 273.786 123.626 273.248 123.564 272.697L123.474 271.862L123.424 271.43C123.403 271.28 123.389 271.142 123.327 270.907C123.315 270.845 123.299 270.808 123.29 270.784L123.272 270.735C123.248 270.687 123.302 270.776 123.209 270.614C123.15 270.532 123.093 270.461 123.004 270.394C122.909 270.334 122.776 270.271 122.694 270.267C122.286 270.238 122.14 270.367 121.994 270.42C121.71 270.556 121.507 270.672 121.298 270.737C121.109 270.807 120.894 270.803 120.783 270.776C120.771 270.784 120.692 270.747 120.632 270.721L120.54 270.68C120.613 270.717 120.559 270.684 120.579 270.695C120.565 270.684 120.515 270.625 120.481 270.534C120.317 270.163 120.261 269.605 120.228 269.088C120.164 266.951 120.494 264.756 120.85 262.634C121.218 260.504 121.678 258.41 122.175 256.362C122.671 254.315 123.203 252.309 123.753 250.351C124.028 249.378 124.297 248.4 124.594 247.457C124.905 246.519 125.211 245.594 125.511 244.683C126.837 241.068 128.456 237.792 130.077 234.845C131.704 231.898 133.359 229.284 134.91 227.029C136.44 224.757 137.854 222.833 139.017 221.245C140.186 219.663 141.139 218.444 141.783 217.606C142.433 216.78 142.787 216.332 142.787 216.332C142.826 216.283 142.82 216.214 142.771 216.175C142.733 216.109 142.67 216.115 142.63 216.151Z" fill="#333333" stroke="#333333"/>
</svg>
